<?xml version="1.0" encoding="UTF-8"?>
<svg width="361px" height="637px" viewBox="0 0 361 637" version="1.1" xmlns="http://www.w3.org/2000/svg" xmlns:xlink="http://www.w3.org/1999/xlink">
    <!-- Generator: Sketch 51.2 (57519) - http://www.bohemiancoding.com/sketch -->
    <title>help requested</title>
    <desc>Created with Sketch.</desc>
    <defs>
        <polygon id="path-1" points="360 0 0 0 0 80 360 80"></polygon>
        <filter x="-3.3%" y="-10.0%" width="106.7%" height="130.0%" filterUnits="objectBoundingBox" id="filter-2">
            <feOffset dx="0" dy="4" in="SourceAlpha" result="shadowOffsetOuter1"></feOffset>
            <feGaussianBlur stdDeviation="2" in="shadowOffsetOuter1" result="shadowBlurOuter1"></feGaussianBlur>
            <feColorMatrix values="0 0 0 0 0   0 0 0 0 0   0 0 0 0 0  0 0 0 0.24 0" type="matrix" in="shadowBlurOuter1" result="shadowMatrixOuter1"></feColorMatrix>
            <feOffset dx="0" dy="0" in="SourceAlpha" result="shadowOffsetOuter2"></feOffset>
            <feGaussianBlur stdDeviation="2" in="shadowOffsetOuter2" result="shadowBlurOuter2"></feGaussianBlur>
            <feColorMatrix values="0 0 0 0 0   0 0 0 0 0   0 0 0 0 0  0 0 0 0.12 0" type="matrix" in="shadowBlurOuter2" result="shadowMatrixOuter2"></feColorMatrix>
            <feMerge>
                <feMergeNode in="shadowMatrixOuter1"></feMergeNode>
                <feMergeNode in="shadowMatrixOuter2"></feMergeNode>
            </feMerge>
        </filter>
        <linearGradient x1="50%" y1="0%" x2="50%" y2="100%" id="linearGradient-3">
            <stop stop-color="#81020D" offset="0%"></stop>
            <stop stop-color="#FF0026" offset="100%"></stop>
        </linearGradient>
        <linearGradient x1="50%" y1="0%" x2="50%" y2="99.0214445%" id="linearGradient-4">
            <stop stop-color="#000000" stop-opacity="0" offset="0%"></stop>
            <stop stop-color="#000000" stop-opacity="0.02" offset="80%"></stop>
            <stop stop-color="#000000" stop-opacity="0.04" offset="100%"></stop>
        </linearGradient>
        <linearGradient x1="50%" y1="0%" x2="50%" y2="100%" id="linearGradient-5">
            <stop stop-color="#FFFFFF" stop-opacity="0.12" offset="0%"></stop>
            <stop stop-color="#FFFFFF" stop-opacity="0.06" offset="20%"></stop>
            <stop stop-color="#FFFFFF" stop-opacity="0" offset="100%"></stop>
        </linearGradient>
        <circle id="path-6" cx="23.5" cy="23.5" r="23.5"></circle>
        <filter x="-38.3%" y="-25.5%" width="176.6%" height="176.6%" filterUnits="objectBoundingBox" id="filter-7">
            <feOffset dx="0" dy="6" in="SourceAlpha" result="shadowOffsetOuter1"></feOffset>
            <feGaussianBlur stdDeviation="3" in="shadowOffsetOuter1" result="shadowBlurOuter1"></feGaussianBlur>
            <feComposite in="shadowBlurOuter1" in2="SourceAlpha" operator="out" result="shadowBlurOuter1"></feComposite>
            <feColorMatrix values="0 0 0 0 0   0 0 0 0 0   0 0 0 0 0  0 0 0 0.24 0" type="matrix" in="shadowBlurOuter1" result="shadowMatrixOuter1"></feColorMatrix>
            <feOffset dx="0" dy="0" in="SourceAlpha" result="shadowOffsetOuter2"></feOffset>
            <feGaussianBlur stdDeviation="3" in="shadowOffsetOuter2" result="shadowBlurOuter2"></feGaussianBlur>
            <feComposite in="shadowBlurOuter2" in2="SourceAlpha" operator="out" result="shadowBlurOuter2"></feComposite>
            <feColorMatrix values="0 0 0 0 0   0 0 0 0 0   0 0 0 0 0  0 0 0 0.12 0" type="matrix" in="shadowBlurOuter2" result="shadowMatrixOuter2"></feColorMatrix>
            <feMerge>
                <feMergeNode in="shadowMatrixOuter1"></feMergeNode>
                <feMergeNode in="shadowMatrixOuter2"></feMergeNode>
            </feMerge>
        </filter>
        <linearGradient x1="50%" y1="0%" x2="50%" y2="100%" id="linearGradient-8">
            <stop stop-color="#F5515F" offset="0%"></stop>
            <stop stop-color="#9F041B" offset="100%"></stop>
        </linearGradient>
    </defs>
    <g id="help-requested" stroke="none" stroke-width="1" fill="none" fill-rule="evenodd">
        <rect fill="#F3F3F3" x="0" y="0" width="361" height="637"></rect>
        <g id="screen">
            <g id="app-bar" opacity="0.801931">
                <g id="app-bar-bg">
                    <use fill="black" fill-opacity="1" filter="url(#filter-2)" xlink:href="#path-1"></use>
                    <use fill="#D0021B" fill-rule="evenodd" xlink:href="#path-1"></use>
                </g>
                <text id="Rescue-Me" font-family="Roboto-Medium, Roboto" font-size="20" font-weight="400" line-spacing="28" fill="#FFFFFF">
                    <tspan x="130" y="61">Rescue Me</tspan>
                </text>
            </g>
            <g id="Material/Android/Status-bar-360dp-black">
                <rect id="status-bar-bg" fill="#D0021B" x="0" y="0" width="360" height="24"></rect>
                <g id="Material/Android/Status-bar-content-light" transform="translate(242.000000, 0.000000)" stroke-width="1">
                    <g id="time" opacity="0.9" transform="translate(74.000000, 4.000000)" fill="#FFFFFF" font-family="Roboto-Medium, Roboto" font-size="14" font-weight="400">
                        <text id="12:30">
                            <tspan x="0.418945312" y="15">12:30</tspan>
                        </text>
                    </g>
                    <g id="battery" transform="translate(55.000000, 4.000000)">
                        <polygon id="bounds" points="0 0 16 0 16 16 0 16"></polygon>
                        <polygon id="Shape" fill="#FFFFFF" points="9 1.875 9 1 6 1 6 1.875 3 1.875 3 15 12 15 12 1.875"></polygon>
                    </g>
                    <g id="cellular" transform="translate(35.000000, 4.000000)">
                        <polygon id="bounds" points="0 0 16 0 16 16 0 16"></polygon>
                        <polygon id="Shape" fill="#FFFFFF" points="0 15 14 15 14 1"></polygon>
                    </g>
                    <g id="wifi" transform="translate(14.000000, 4.000000)">
                        <polygon id="bounds" points="2 0 18 0 18 16 2 16"></polygon>
                        <path d="M0.977372085,4.01593123 C3.48821908,2.12256382 6.61301513,1 10,1 C13.3869849,1 16.5117809,2.12256382 19.0226279,4.01593123 L10,15 L0.977372085,4.01593123 Z" id="Shape" fill="#FFFFFF"></path>
                    </g>
                </g>
            </g>
            <g id="Material/Android/Navbar-360dp-black" opacity="0.421930804" transform="translate(0.000000, 592.000000)">
                <rect id="navbar-bg" fill="#000000" fill-rule="evenodd" x="0" y="0" width="360" height="48"></rect>
                <rect id="recent" stroke="#FFFFFF" stroke-width="2" x="274" y="17" width="14" height="14" rx="2"></rect>
                <circle id="home" stroke="#FFFFFF" stroke-width="2" cx="180" cy="24" r="7"></circle>
                <path d="M85.7724316,16.1131054 L73.2232624,23.3677176 C72.9340741,23.5348959 72.934034,23.46698 73.2232624,23.6341815 L85.772432,30.8887943 C86.0605714,31.0553662 86,31.0904301 86,30.7555624 L85.9999997,16.2463374 C85.9999997,15.9115163 86.0606134,15.9465089 85.7724316,16.1131054 Z" id="back" stroke="#FFFFFF" stroke-width="2"></path>
            </g>
        </g>
        <rect id="Rectangle" fill="url(#linearGradient-3)" fill-rule="nonzero" opacity="0.715513393" x="0" y="80" width="360" height="512"></rect>
        <text id="10-sec-to-cancel-req" font-family="Roboto-Medium, Roboto" font-size="20" font-weight="400" fill="#FFFFFF">
            <tspan x="71" y="426">10 sec to cancel request</tspan>
        </text>
        <g id="fab" transform="translate(157.000000, 451.000000)">
            <g id="button-bg">
                <use fill="black" fill-opacity="1" filter="url(#filter-7)" xlink:href="#path-6"></use>
                <circle stroke="url(#linearGradient-4)" stroke-width="0.5" stroke-linejoin="square" fill="#D0021B" fill-rule="evenodd" cx="23.5" cy="23.5" r="23.25"></circle>
                <circle stroke="url(#linearGradient-5)" stroke-width="0.5" stroke-linejoin="square" cx="23.5" cy="23.5" r="23.25"></circle>
            </g>
            <g id="Material/Icons-white/add" transform="translate(24.000000, 23.000000) rotate(45.000000) translate(-24.000000, -23.000000) translate(12.000000, 11.000000)" fill="#FFFFFF">
                <polygon id="Shape" points="19 11 13 11 13 5 11 5 11 11 5 11 5 13 11 13 11 19 13 19 13 13 19 13"></polygon>
            </g>
        </g>
        <circle id="Oval" fill="#D8D8D8" fill-rule="nonzero" cx="180.5" cy="320.5" r="69.5"></circle>
        <path d="M250,320.5 C255.109759,278.895336 207.559969,245.419502 180.5,251 C180.399919,267.381051 182.417981,307.160128 174.732543,323.638692 C188.481937,320.917336 212.837391,318.637492 250,320.5 Z" id="Oval" fill="url(#linearGradient-8)" fill-rule="nonzero"></path>
        <ellipse id="Oval-3" fill="#A90D23" fill-rule="nonzero" cx="246" cy="320.5" rx="4" ry="3.5"></ellipse>
        <circle id="Oval-2" stroke="#979797" fill="#FFFFFF" fill-rule="nonzero" cx="181" cy="320" r="61"></circle>
        <text id="Requesting" font-family="Roboto-Medium, Roboto" font-size="14" font-weight="400" fill="#D0021B">
            <tspan x="145" y="324">Requesting</tspan>
        </text>
        <g id="Material/Icons-white/menu" transform="translate(15.000000, 38.000000)" fill="#FFFFFF">
            <path d="M3,18 L21,18 L21,16 L3,16 L3,18 L3,18 Z M3,13 L21,13 L21,11 L3,11 L3,13 L3,13 Z M3,6 L3,8 L21,8 L21,6 L3,6 L3,6 Z" id="Shape"></path>
        </g>
    </g>
</svg>