<?xml version="1.0" encoding="UTF-8"?>
<svg width="361px" height="637px" viewBox="0 0 361 637" version="1.1" xmlns="http://www.w3.org/2000/svg" xmlns:xlink="http://www.w3.org/1999/xlink">
    <!-- Generator: Sketch 51.2 (57519) - http://www.bohemiancoding.com/sketch -->
    <title>screen</title>
    <desc>Created with Sketch.</desc>
    <defs>
        <polygon id="path-1" points="360 0 0 0 0 80 360 80"></polygon>
        <filter x="-3.3%" y="-10.0%" width="106.7%" height="130.0%" filterUnits="objectBoundingBox" id="filter-2">
            <feOffset dx="0" dy="4" in="SourceAlpha" result="shadowOffsetOuter1"></feOffset>
            <feGaussianBlur stdDeviation="2" in="shadowOffsetOuter1" result="shadowBlurOuter1"></feGaussianBlur>
            <feColorMatrix values="0 0 0 0 0   0 0 0 0 0   0 0 0 0 0  0 0 0 0.24 0" type="matrix" in="shadowBlurOuter1" result="shadowMatrixOuter1"></feColorMatrix>
            <feOffset dx="0" dy="0" in="SourceAlpha" result="shadowOffsetOuter2"></feOffset>
            <feGaussianBlur stdDeviation="2" in="shadowOffsetOuter2" result="shadowBlurOuter2"></feGaussianBlur>
            <feColorMatrix values="0 0 0 0 0   0 0 0 0 0   0 0 0 0 0  0 0 0 0.12 0" type="matrix" in="shadowBlurOuter2" result="shadowMatrixOuter2"></feColorMatrix>
            <feMerge>
                <feMergeNode in="shadowMatrixOuter1"></feMergeNode>
                <feMergeNode in="shadowMatrixOuter2"></feMergeNode>
            </feMerge>
        </filter>
    </defs>
    <g id="Page-1" stroke="none" stroke-width="1" fill="none" fill-rule="evenodd">
        <g id="rescuer">
            <g id="screen">
                <g id="app-bar">
                    <g id="app-bar-bg" opacity="0.726506696">
                        <use fill="black" fill-opacity="1" filter="url(#filter-2)" xlink:href="#path-1"></use>
                        <use fill="#D0021B" fill-rule="evenodd" xlink:href="#path-1"></use>
                    </g>
                    <g id="Material/Icons-white/more-vert" transform="translate(332.000000, 40.000000)" fill="#FFFFFF">
                        <path d="M6,16 C7.1,16 8,16.9 8,18 C8,19.1 7.1,20 6,20 C4.9,20 4,19.1 4,18 C4,16.9 4.9,16 6,16 L6,16 Z M6,14 C4.9,14 4,13.1 4,12 C4,10.9 4.9,10 6,10 C7.1,10 8,10.9 8,12 C8,13.1 7.1,14 6,14 L6,14 Z M6,8 C4.9,8 4,7.1 4,6 C4,4.9 4.9,4 6,4 C7.1,4 8,4.9 8,6 C8,7.1 7.1,8 6,8 L6,8 Z" id="Shape" transform="translate(6.000000, 12.000000) scale(1, -1) translate(-6.000000, -12.000000) "></path>
                    </g>
                    <text id="Rescue" font-family="Roboto-Medium, Roboto" font-size="20" font-weight="400" line-spacing="28" fill="#FFFFFF">
                        <tspan x="147" y="61">Rescue</tspan>
                    </text>
                </g>
                <g id="Material/Android/Status-bar-360dp-black">
                    <rect id="status-bar-bg" fill="#D0021B" x="0" y="0" width="360" height="24"></rect>
                    <g id="Material/Android/Status-bar-content-light" transform="translate(242.000000, 0.000000)" stroke-width="1">
                        <g id="time" opacity="0.9" transform="translate(74.000000, 4.000000)" fill="#FFFFFF" font-family="Roboto-Medium, Roboto" font-size="14" font-weight="400">
                            <text id="12:30">
                                <tspan x="0.418945312" y="15">12:30</tspan>
                            </text>
                        </g>
                        <g id="battery" transform="translate(55.000000, 4.000000)">
                            <polygon id="bounds" points="0 0 16 0 16 16 0 16"></polygon>
                            <polygon id="Shape" fill="#FFFFFF" points="9 1.875 9 1 6 1 6 1.875 3 1.875 3 15 12 15 12 1.875"></polygon>
                        </g>
                        <g id="cellular" transform="translate(35.000000, 4.000000)">
                            <polygon id="bounds" points="0 0 16 0 16 16 0 16"></polygon>
                            <polygon id="Shape" fill="#FFFFFF" points="0 15 14 15 14 1"></polygon>
                        </g>
                        <g id="wifi" transform="translate(14.000000, 4.000000)">
                            <polygon id="bounds" points="2 0 18 0 18 16 2 16"></polygon>
                            <path d="M0.977372085,4.01593123 C3.48821908,2.12256382 6.61301513,1 10,1 C13.3869849,1 16.5117809,2.12256382 19.0226279,4.01593123 L10,15 L0.977372085,4.01593123 Z" id="Shape" fill="#FFFFFF"></path>
                        </g>
                    </g>
                </g>
                <g id="Material/Android/Navbar-360dp-black" opacity="0.752678571" transform="translate(0.000000, 592.000000)">
                    <rect id="navbar-bg" fill="#000000" fill-rule="evenodd" x="0" y="0" width="360" height="48"></rect>
                    <rect id="recent" stroke="#FFFFFF" stroke-width="2" x="274" y="17" width="14" height="14" rx="2"></rect>
                    <circle id="home" stroke="#FFFFFF" stroke-width="2" cx="180" cy="24" r="7"></circle>
                    <path d="M85.7724316,16.1131054 L73.2232624,23.3677176 C72.9340741,23.5348959 72.934034,23.46698 73.2232624,23.6341815 L85.772432,30.8887943 C86.0605714,31.0553662 86,31.0904301 86,30.7555624 L85.9999997,16.2463374 C85.9999997,15.9115163 86.0606134,15.9465089 85.7724316,16.1131054 Z" id="back" stroke="#FFFFFF" stroke-width="2"></path>
                </g>
            </g>
        </g>
    </g>
</svg>